<?xml version="1.0" encoding="utf-8"?>
<!-- Generator: Adobe Illustrator 19.0.0, SVG Export Plug-In . SVG Version: 6.00 Build 0)  -->
<svg version="1.1" id="Layer_1" xmlns="http://www.w3.org/2000/svg" xmlns:xlink="http://www.w3.org/1999/xlink" x="0px" y="0px"
	 viewBox="0 0 500 500" style="enable-background:new 0 0 500 500;" xml:space="preserve">
<g id="XMLID_1_">
	<path id="XMLID_3_" d="M217.4,161.2h0.2c1.5,1.8,3.3,3.3,4.9,5c3.7,3.7,7.4,7.4,11.1,11.1v0.2c-5.4,5.4-10.7,10.8-16.1,16.1
		c-5.4-5.4-10.8-10.8-16.2-16.2c0.3-0.5,0.8-0.9,1.2-1.3C207.5,171.2,212.5,166.2,217.4,161.2z"/>
	<path id="XMLID_4_" d="M217.4,161.2L217.4,161.2l0.2,0v0l0,0c1.5,1.8,3.3,3.3,4.9,5l0,0c3.7,3.7,7.4,7.4,11.1,11.1l0,0h0v0.2h0l0,0
		c-5.4,5.4-10.7,10.8-16.1,16.1l0,0l0,0c-5.4-5.4-10.8-10.8-16.2-16.2l0,0l0,0c0.3-0.5,0.8-0.9,1.2-1.3l0,0l0,0
		C207.5,171.2,212.5,166.2,217.4,161.2L217.4,161.2L217.4,161.2L217.4,161.2L217.4,161.2c-4.9,5-9.9,9.9-14.9,14.9l0,0
		c-0.4,0.4-0.9,0.8-1.2,1.3l0,0l0,0c5.4,5.4,10.8,10.8,16.2,16.2l0,0l0,0c5.4-5.4,10.7-10.8,16.1-16.1l0,0v-0.2v0l0,0
		c-3.7-3.7-7.4-7.4-11.1-11.1l0,0l0,0c-1.6-1.7-3.4-3.2-4.9-5l0,0L217.4,161.2L217.4,161.2L217.4,161.2L217.4,161.2z"/>
	<path id="XMLID_5_" d="M249.8,161.2h0.2c0.2,0.2,0.3,0.4,0.5,0.6c5.2,5.1,10.3,10.4,15.6,15.5c-0.1,0.3-0.4,0.5-0.6,0.7
		c-5.2,5.2-10.4,10.4-15.6,15.5c-5.4-5.4-10.8-10.8-16.2-16.1C239,172,244.5,166.7,249.8,161.2z"/>
	<path id="XMLID_6_" d="M249.8,161.2L249.8,161.2l0.2,0v0l0,0c0.2,0.2,0.3,0.4,0.5,0.6l0,0c5.2,5.1,10.3,10.4,15.6,15.5l0,0l0,0
		c-0.1,0.3-0.4,0.5-0.6,0.7c-5.2,5.2-10.4,10.4-15.6,15.5l0,0l0,0c-5.4-5.4-10.8-10.8-16.2-16.1l0,0l0,0
		C239,172,244.5,166.7,249.8,161.2L249.8,161.2L249.8,161.2L249.8,161.2L249.8,161.2c-5.3,5.5-10.9,10.8-16.1,16.3l0,0l0,0
		c5.5,5.3,10.8,10.8,16.2,16.1l0,0l0,0c5.2-5.2,10.4-10.4,15.6-15.5c0.2-0.2,0.5-0.4,0.6-0.7l0,0l0,0c-5.2-5.1-10.4-10.3-15.6-15.5
		l0,0c-0.2-0.2-0.3-0.4-0.5-0.6l0,0L249.8,161.2L249.8,161.2L249.8,161.2L249.8,161.2z"/>
	<path id="XMLID_7_" d="M282.2,161.2h0.2c1,1.2,2.2,2.2,3.3,3.4c4.1,4.1,8.1,8.1,12.2,12.2c0.2,0.2,0.5,0.4,0.6,0.8
		c-5.5,5.3-10.7,10.8-16.2,16.1c-5.1-5.1-10.3-10.3-15.4-15.4c-0.3-0.3-0.6-0.5-0.7-0.8c2.7-2.7,5.4-5.4,8.1-8.1
		C276.9,166.6,279.6,163.9,282.2,161.2z"/>
	<path id="XMLID_8_" d="M282.2,161.2L282.2,161.2l0.2,0v0l0,0c1,1.2,2.2,2.2,3.3,3.4l0,0c4.1,4.1,8.1,8.1,12.2,12.2l0,0l0,0
		c0.2,0.2,0.5,0.4,0.6,0.7l0,0l0,0c-5.5,5.3-10.7,10.8-16.2,16.1l0,0l0,0c-5.1-5.1-10.3-10.3-15.4-15.4l0,0l0,0
		c-0.3-0.3-0.6-0.5-0.7-0.8l0,0l0,0c2.7-2.7,5.4-5.4,8.1-8.1l0,0l0,0C276.9,166.6,279.6,164,282.2,161.2L282.2,161.2L282.2,161.2
		L282.2,161.2L282.2,161.2c-2.6,2.7-5.3,5.3-8,8l0,0c-2.7,2.7-5.4,5.4-8.1,8.1l0,0l0,0c0.1,0.4,0.5,0.6,0.7,0.8l0,0l0,0
		c5.1,5.1,10.3,10.3,15.4,15.4l0,0l0,0c5.5-5.3,10.8-10.8,16.2-16.1l0,0l0,0c-0.1-0.3-0.4-0.5-0.6-0.8l0,0l0,0
		c-4.1-4.1-8.1-8.1-12.2-12.2l0,0l0,0c-1.1-1.1-2.3-2.2-3.3-3.4l0,0L282.2,161.2L282.2,161.2L282.2,161.2L282.2,161.2z"/>
	<path id="XMLID_9_" d="M233.9,209.6c5.3-5.3,10.6-10.6,15.9-15.9l0.2,0.1c5.3,5.4,10.7,10.7,16,16c-0.2,0.4-0.6,0.6-0.8,1
		c-3.9,3.8-7.7,7.7-11.6,11.6c-1.3,1.2-2.5,2.6-3.7,3.7c-1.8-1.7-3.5-3.5-5.3-5.2c-3.6-3.6-7.2-7.2-10.9-10.8
		C233.8,209.8,233.9,209.7,233.9,209.6z"/>
	<path id="XMLID_10_" d="M233.9,209.6L233.9,209.6c5.3-5.3,10.6-10.6,15.9-15.9l0,0l0,0l0.2,0.1l0,0l0,0c5.3,5.4,10.7,10.7,16,16
		l0,0l0,0c-0.2,0.4-0.5,0.6-0.8,1l0,0l0,0c-3.9,3.8-7.7,7.7-11.6,11.6c-1.3,1.2-2.5,2.6-3.7,3.7l0,0l0,0c-1.8-1.7-3.5-3.5-5.3-5.2
		c-3.6-3.6-7.2-7.2-10.9-10.8l0,0l0,0C233.8,209.8,233.9,209.7,233.9,209.6L233.9,209.6L233.9,209.6L233.9,209.6L233.9,209.6
		c-0.1,0.1-0.1,0.2-0.2,0.3l0,0l0,0c3.6,3.6,7.2,7.2,10.9,10.8c1.8,1.7,3.5,3.6,5.3,5.2l0,0l0,0c1.3-1.1,2.5-2.5,3.7-3.7
		c3.9-3.8,7.7-7.7,11.6-11.6l0,0l0,0c0.3-0.3,0.7-0.6,0.8-1l0,0l0,0c-5.4-5.3-10.7-10.7-16-16l0,0l-0.2-0.1l0,0l0,0
		C244.5,199,239.2,204.3,233.9,209.6L233.9,209.6L233.9,209.6L233.9,209.6z"/>
	<path id="XMLID_11_" d="M67.5,279.2c16.1,0,32.2,0,48.3,0c0,3.9,0,7.7,0,11.6c-5.8,0-11.6,0-17.4,0c0,15.2,0,30.5,0,45.7
		c0,0.8,0.1,1.5-0.1,2.3H84.9c0.1-16,0-32,0-48c-5.8,0-11.6,0-17.4,0V279.2z"/>
	<path id="XMLID_12_" d="M67.5,279.2L67.5,279.2c16.1,0,32.2,0,48.3,0v0l0,0c0,1.9,0,3.9,0,5.8c0,1.9,0,3.9,0,5.8l0,0v0
		c-5.8,0-11.6,0-17.4,0h0v0c0,15.2,0,30.5,0,45.7c0,0.1,0,0.3,0,0.4c0,0.2,0,0.4,0,0.6c0,0.4,0,0.8-0.1,1.3l0,0v0H84.9v0l0,0
		c0-8,0-16,0-24c0-8,0-16,0-24v0h0c-5.8,0-11.6,0-17.4,0v0h0L67.5,279.2L67.5,279.2L67.5,279.2L67.5,279.2L67.5,279.2l0,11.6h0
		c5.8,0,11.6,0,17.4,0v0h0c0,8,0,16,0,24c0,8,0,16,0,24v0h13.5l0,0c0.1-0.4,0.1-0.8,0.1-1.3c0-0.2,0-0.4,0-0.6c0-0.1,0-0.3,0-0.4
		c0-15.2,0-30.5,0-45.7h0v0c5.8,0,11.6,0,17.4,0h0l0,0c0-1.9,0-3.8,0-5.8c0-1.9,0-3.9,0-5.8l0,0h0C99.7,279.2,83.6,279.2,67.5,279.2
		L67.5,279.2L67.5,279.2L67.5,279.2z"/>
	<path id="XMLID_13_" d="M156.2,279.2c4.5,0,9,0,13.6,0c0,19.8,0.1,39.7-0.1,59.5h-13.5c-0.1-5.3,0-10.5-0.1-15.8
		C156.2,308.4,156.1,293.8,156.2,279.2z"/>
	<path id="XMLID_14_" d="M156.2,279.2L156.2,279.2c4.5,0,9,0,13.6,0l0,0h0c0,3.2,0,6.4,0,9.5c0,8.1,0,16.1,0,24.2
		c0,8.6,0,17.2-0.1,25.8h0v0h-13.5v0l0,0c0-2.6,0-5.3,0-7.9c0-1.3,0-2.6,0-4c0-1.3,0-2.6,0-4c0-7.3,0-14.6,0-21.9
		C156.2,293.8,156.2,286.5,156.2,279.2L156.2,279.2L156.2,279.2L156.2,279.2L156.2,279.2c0,7.3,0,14.6,0,21.9c0,7.3,0,14.6,0,21.9
		c0,1.3,0,2.6,0,4c0,1.3,0,2.6,0,4c0,2.6,0,5.3,0,7.9l0,0h13.5v0c0-8.6,0.1-17.2,0.1-25.8c0-8.1,0-16.1,0-24.2c0-3.2,0-6.4,0-9.5v0
		l0,0C165.2,279.2,160.7,279.2,156.2,279.2L156.2,279.2L156.2,279.2L156.2,279.2z"/>
	<path id="XMLID_15_" d="M395.3,279.2c4.5,0,9,0,13.6,0c0,15.9,0,31.7,0,47.6c7.9,0,15.7,0,23.6,0v11.9h-37.2
		C395.3,319,395.3,299.1,395.3,279.2z"/>
	<path id="XMLID_16_" d="M395.3,279.2L395.3,279.2c4.5,0,9,0,13.6,0l0,0h0c0,15.9,0,31.7,0,47.6v0l0,0c4,0,7.9,0,11.9,0
		c3.9,0,7.8,0,11.7,0v0h0v11.9h-37.1v0h0c0-7,0-14.1,0-21.1c0-9.7,0-19.4,0-29.2C395.3,285.4,395.3,282.3,395.3,279.2L395.3,279.2
		L395.3,279.2L395.3,279.2L395.3,279.2c0,3.1,0,6.2,0,9.2c0,9.7,0,19.5,0,29.2c0,7,0,14.1,0,21.1v0h37.2v-12h0c-3.9,0-7.8,0-11.7,0
		c-4,0-7.9,0-11.9,0l0,0h0c0-15.9,0-31.7,0-47.6v0l0,0C404.4,279.2,399.8,279.2,395.3,279.2L395.3,279.2L395.3,279.2L395.3,279.2z"
		/>
	<path id="XMLID_19_" d="M267.8,299.2c-1.4-4.7-4-8.9-7.7-12.1c-4.8-4.3-11.2-6.6-17.5-7.5c-3.6-0.5-7.2-0.4-10.9-0.4
		c-5.4,0-10.7,0-16.1,0c-0.3,0-0.6,0-0.9,0.1c0.1,19.7,0,39.3,0.1,59c0,0.1-0.1,0.4-0.1,0.5H238c2.1-0.4,4.2-0.4,6.3-0.8
		c7-1.3,13.8-4.8,18.4-10.3c3.4-4,5.5-9.1,6.2-14.3C269.4,308.7,269.1,303.8,267.8,299.2z M252.5,319c-1.7,2.7-4.2,4.8-7.1,6.1
		c-2.6,1.2-5.5,1.8-8.4,1.8c-3,0-6,0-9,0c-0.2-3.3,0-6.7-0.1-10c0-8.7,0-17.4,0-26.1c3.1,0,6.2,0,9.3,0c4.7,0.1,9.4,1.7,12.8,5
		c3,2.9,4.7,7.1,5,11.3C255.4,311.2,254.7,315.5,252.5,319z"/>
	<path id="XMLID_22_" d="M267.8,299.2L267.8,299.2c-1.3-4.7-4-8.9-7.7-12.1c-4.9-4.3-11.2-6.6-17.5-7.5c-2.4-0.4-4.9-0.4-7.4-0.4
		c-0.8,0-1.7,0-2.5,0c-0.3,0-0.7,0-1,0c-5.4,0-10.7,0-16.1,0c-0.3,0-0.6,0-0.9,0.1l0,0v0c0,7.6,0,15.3,0,22.9c0,6.2,0,12.4,0,18.6
		c0,5.8,0,11.7,0,17.5h0l0,0c0,0.1-0.1,0.4-0.1,0.5l0,0H238l0,0c2.1-0.4,4.2-0.4,6.3-0.8c7-1.3,13.8-4.8,18.4-10.3
		c3.4-4,5.5-9.1,6.2-14.3c0.2-1.6,0.3-3.2,0.3-4.8C269.1,305.4,268.7,302.2,267.8,299.2L267.8,299.2L267.8,299.2
		c0.9,3,1.3,6.2,1.3,9.4c0,1.6-0.1,3.2-0.3,4.8c-0.7,5.2-2.8,10.2-6.2,14.3c-4.6,5.5-11.3,9-18.4,10.3c-2.1,0.5-4.2,0.4-6.3,0.8l0,0
		v0h-23.2v0l0,0c0-0.1,0.1-0.4,0.1-0.5l0,0v0c0-5.8,0-11.7,0-17.5c0-6.2,0-12.4,0-18.6c0-7.6,0-15.3,0-22.9l0,0l0,0
		c0.3-0.1,0.6-0.1,0.9-0.1c5.3,0,10.7,0,16.1,0c0.3,0,0.7,0,1,0c0.8,0,1.7,0,2.5,0c2.5,0,4.9,0,7.4,0.4c6.4,0.8,12.7,3.2,17.5,7.5
		C263.8,290.3,266.4,294.5,267.8,299.2L267.8,299.2z M252.5,319L252.5,319c-1.7,2.7-4.2,4.8-7.1,6.1c-2.6,1.2-5.5,1.8-8.4,1.8
		c-1.5,0-3,0-4.5,0c-1.5,0-3,0-4.5,0l0,0l0,0c-0.1-1.4-0.1-2.7-0.1-4.1c0-1.3,0-2.7,0-4c0-0.6,0-1.3,0-1.9c0-8.7,0-17.4,0-26.1h0v0
		c3.1,0,6.2,0,9.3,0c4.7,0.1,9.4,1.7,12.8,5c3,2.9,4.7,7.1,5,11.3c0,0.5,0.1,1.1,0.1,1.6C255.2,312.3,254.4,315.9,252.5,319
		L252.5,319L252.5,319c1.9-3.1,2.7-6.7,2.7-10.2c0-0.5,0-1.1-0.1-1.6c-0.3-4.2-2-8.3-5-11.3c-3.4-3.3-8.1-4.9-12.8-5
		c-3.1,0-6.2,0-9.3,0h0l0,0c0,8.7,0,17.4,0,26.1c0,0.6,0,1.3,0,1.9c0,1.3,0,2.7,0,4c0,1.4,0,2.7,0.1,4.1l0,0l0,0c1.5,0,3,0,4.5,0
		c1.5,0,3,0,4.5,0c2.9-0.1,5.8-0.6,8.4-1.8C248.3,323.8,250.8,321.7,252.5,319L252.5,319z"/>
	<path id="XMLID_25_" d="M353.5,324.8c-5.7-13.8-11.3-27.6-17.1-41.4c-0.5-1.4-1.1-2.8-1.7-4.1c-4.7-0.1-9.3-0.1-14,0
		c-8,19.2-16,38.4-24,57.6c-0.3,0.6-0.6,1.2-0.7,1.9h14.4c1.4-4,3-7.9,4.4-11.9c8.2-0.1,16.4,0,24.6-0.1c0.4-0.1,0.6,0.3,0.7,0.6
		c1.4,3.8,2.8,7.5,4.1,11.3h14.9C357.4,334.1,355.4,329.5,353.5,324.8z M318.8,316.4c-0.1-0.5,0.3-1,0.4-1.5
		c2.7-7.2,5.6-14.3,8.3-21.5c0.1,0,0.2-0.1,0.2-0.1c2.8,7.5,5.7,15,8.6,22.6c0,0.1,0,0.3,0,0.4C330.4,316.3,324.6,316.3,318.8,316.4
		z"/>
	<path id="XMLID_28_" d="M353.5,324.8L353.5,324.8c-5.7-13.8-11.3-27.6-17-41.4c-0.5-1.4-1.1-2.8-1.7-4.1l0,0l0,0
		c-2.3,0-4.7-0.1-7-0.1c-2.3,0-4.7,0-7,0.1l0,0l0,0c-8,19.2-16,38.4-24,57.6c-0.3,0.6-0.6,1.2-0.7,1.9l0,0h14.5l0,0
		c1.4-4,3-7.9,4.4-11.9l0,0l0,0c3.3-0.1,6.7-0.1,10-0.1c3.9,0,7.8,0,11.7,0c1,0,2,0,3,0h0l0,0c0,0,0.1,0,0.1,0
		c0.3,0,0.4,0.4,0.5,0.6c1.4,3.8,2.8,7.5,4.1,11.3l0,0h14.9l0,0C357.4,334.1,355.4,329.4,353.5,324.8L353.5,324.8L353.5,324.8
		c1.9,4.7,3.9,9.3,5.7,14l0,0v0h-14.9v0l0,0c-1.4-3.8-2.8-7.5-4.1-11.3c-0.1-0.3-0.2-0.7-0.5-0.7c0,0-0.1,0-0.1,0l0,0l0,0
		c-1,0-2,0-3,0c-3.9,0-7.8,0-11.7,0c-3.3,0-6.7,0-10,0.1l0,0l0,0c-1.4,4-3,7.9-4.4,11.9l0,0v0h-14.4v0l0,0c0.1-0.7,0.4-1.3,0.7-1.9
		c8-19.2,16-38.4,24-57.6l0,0l0,0c2.3,0,4.7-0.1,7-0.1c2.3,0,4.7,0,7,0.1l0,0l0,0c0.6,1.3,1.2,2.7,1.7,4.1
		C342.2,297.2,347.8,311,353.5,324.8L353.5,324.8z M318.8,316.4L318.8,316.4c0-0.1,0-0.1,0-0.2c0-0.5,0.3-0.9,0.4-1.3l0,0l0,0
		c2.7-7.2,5.6-14.3,8.3-21.5l0,0l0,0c0,0,0.1,0,0.2,0v0l0,0c2.8,7.5,5.7,15,8.6,22.6l0,0h0c0,0.1,0,0.3,0,0.4h0l0,0
		c-2.9,0-5.8,0-8.7,0C324.6,316.3,321.7,316.3,318.8,316.4L318.8,316.4L318.8,316.4L318.8,316.4L318.8,316.4c2.9,0,5.8,0,8.7,0
		s5.8,0,8.7,0l0,0v0c0-0.1,0-0.3,0-0.4v0l0,0c-2.9-7.5-5.8-15-8.6-22.6l0,0h0c-0.1,0-0.2,0-0.2,0.1l0,0l0,0
		c-2.7,7.2-5.5,14.3-8.3,21.5l0,0l0,0c-0.1,0.4-0.4,0.8-0.4,1.3C318.7,316.3,318.7,316.3,318.8,316.4L318.8,316.4L318.8,316.4
		L318.8,316.4z"/>
</g>
</svg>
